<svg width="12" height="12" viewBox="0 0 12 12" fill="none" xmlns="http://www.w3.org/2000/svg">
<path d="M7.8 1.20001C7.02 1.20001 6.24 1.50001 5.7 2.10001L4.98 2.76001C4.74 3.00001 4.74 3.36001 4.98 3.60001C5.22 3.84001 5.58 3.84001 5.82 3.60001L6.54 2.88001C7.2 2.22001 8.4 2.22001 9.06 2.88001C9.42 3.24001 9.6 3.72001 9.6 4.20001C9.6 4.68001 9.42 5.16001 9.06 5.46001L8.4 6.18001C8.16 6.42001 8.16 6.78001 8.4 7.02001C8.52 7.14001 8.7 7.20001 8.82 7.20001C8.94 7.20001 9.12 7.14001 9.24 7.02001L9.96 6.30001C10.5 5.76001 10.8 4.98001 10.8 4.20001C10.8 3.42001 10.5 2.64001 9.9 2.10001C9.36 1.50001 8.58 1.20001 7.8 1.20001Z" fill="#60696C"/>
<path d="M6.18 8.40002L5.46 9.12002C4.8 9.78002 3.6 9.78002 2.94 9.12002C2.58 8.76002 2.4 8.28002 2.4 7.80002C2.4 7.32002 2.58 6.84002 2.94 6.54002L3.6 5.82002C3.84 5.58002 3.84 5.22002 3.6 4.98002C3.36 4.74002 3 4.74002 2.76 4.98002L2.1 5.70002C1.5 6.24002 1.2 7.02002 1.2 7.80002C1.2 8.58002 1.5 9.36002 2.1 9.90002C2.64 10.5 3.42 10.8 4.2 10.8C4.98 10.8 5.76 10.5 6.3 9.90002L7.02 9.18002C7.26 8.94002 7.26 8.58002 7.02 8.34002C6.78 8.10002 6.42 8.16002 6.18 8.40002Z" fill="#60696C"/>
<path d="M6.84 4.32001L4.32 6.84001C4.08 7.08001 4.08 7.44002 4.32 7.68002C4.44 7.80002 4.62 7.86002 4.74 7.86002C4.86 7.86002 5.04 7.80002 5.16 7.68002L7.68 5.16001C7.92 4.92001 7.92 4.56001 7.68 4.32001C7.44 4.08001 7.08 4.08001 6.84 4.32001Z" fill="#60696C"/>
</svg>
